<mxfile host="65bd71144e">
    <diagram id="DDWJKUopNWE1U8sbkWLx" name="Page-1">
        <mxGraphModel dx="1979" dy="619" grid="1" gridSize="10" guides="1" tooltips="1" connect="1" arrows="1" fold="1" page="1" pageScale="1" pageWidth="850" pageHeight="1100" math="0" shadow="0">
            <root>
                <mxCell id="0"/>
                <mxCell id="1" parent="0"/>
                <mxCell id="2" value="" style="shape=ext;double=1;rounded=0;whiteSpace=wrap;html=1;" parent="1" vertex="1">
                    <mxGeometry y="260" width="850" height="80" as="geometry"/>
                </mxCell>
                <mxCell id="6" value="&lt;h1&gt;Profile&lt;/h1&gt;" style="ellipse;shape=doubleEllipse;whiteSpace=wrap;html=1;aspect=fixed;" parent="1" vertex="1">
                    <mxGeometry x="40" y="160" width="140" height="140" as="geometry"/>
                </mxCell>
                <mxCell id="10" value="&lt;h4&gt;name&lt;/h4&gt;" style="text;html=1;strokeColor=#d6b656;fillColor=#fff2cc;align=center;verticalAlign=middle;whiteSpace=wrap;rounded=0;fontFamily=Helvetica;fontSize=24;" parent="1" vertex="1">
                    <mxGeometry x="200" y="190" width="160" height="60" as="geometry"/>
                </mxCell>
                <mxCell id="12" value="other Information" style="rounded=0;whiteSpace=wrap;html=1;fontFamily=Helvetica;fontSize=24;fontColor=default;fillColor=none;gradientColor=none;" parent="1" vertex="1">
                    <mxGeometry y="340" width="200" height="80" as="geometry"/>
                </mxCell>
                <mxCell id="14" value="1.name&lt;br&gt;2.gmail&lt;br&gt;3.Address&lt;br&gt;4.mobilenumber" style="text;strokeColor=none;fillColor=none;align=left;verticalAlign=top;spacingLeft=4;spacingRight=4;overflow=hidden;rotatable=0;points=[[0,0.5],[1,0.5]];portConstraint=eastwest;whiteSpace=wrap;html=1;fontFamily=Helvetica;fontSize=24;fontColor=default;" parent="1" vertex="1">
                    <mxGeometry x="4" y="430" width="200" height="120" as="geometry"/>
                </mxCell>
                <mxCell id="15" value="" style="shape=table;html=1;whiteSpace=wrap;startSize=0;container=1;collapsible=0;childLayout=tableLayout;fontFamily=Helvetica;fontSize=24;fillColor=#fad9d5;strokeColor=#ae4132;" parent="1" vertex="1">
                    <mxGeometry x="10" y="710" width="830" height="170" as="geometry"/>
                </mxCell>
                <mxCell id="16" value="" style="shape=tableRow;horizontal=0;startSize=0;swimlaneHead=0;swimlaneBody=0;top=0;left=0;bottom=0;right=0;collapsible=0;dropTarget=0;fillColor=none;points=[[0,0.5],[1,0.5]];portConstraint=eastwest;fontFamily=Helvetica;fontSize=24;fontColor=default;html=1;" parent="15" vertex="1">
                    <mxGeometry width="830" height="57" as="geometry"/>
                </mxCell>
                <mxCell id="17" value="name&amp;nbsp;" style="shape=partialRectangle;html=1;whiteSpace=wrap;connectable=0;fillColor=none;top=0;left=0;bottom=0;right=0;overflow=hidden;fontFamily=Helvetica;fontSize=24;fontColor=default;" parent="16" vertex="1">
                    <mxGeometry width="274" height="57" as="geometry">
                        <mxRectangle width="274" height="57" as="alternateBounds"/>
                    </mxGeometry>
                </mxCell>
                <mxCell id="18" value="quantity" style="shape=partialRectangle;html=1;whiteSpace=wrap;connectable=0;fillColor=none;top=0;left=0;bottom=0;right=0;overflow=hidden;fontFamily=Helvetica;fontSize=24;fontColor=default;" parent="16" vertex="1">
                    <mxGeometry x="274" width="272" height="57" as="geometry">
                        <mxRectangle width="272" height="57" as="alternateBounds"/>
                    </mxGeometry>
                </mxCell>
                <mxCell id="19" value="price" style="shape=partialRectangle;html=1;whiteSpace=wrap;connectable=0;fillColor=none;top=0;left=0;bottom=0;right=0;overflow=hidden;fontFamily=Helvetica;fontSize=24;fontColor=default;" parent="16" vertex="1">
                    <mxGeometry x="546" width="284" height="57" as="geometry">
                        <mxRectangle width="284" height="57" as="alternateBounds"/>
                    </mxGeometry>
                </mxCell>
                <mxCell id="20" value="" style="shape=tableRow;horizontal=0;startSize=0;swimlaneHead=0;swimlaneBody=0;top=0;left=0;bottom=0;right=0;collapsible=0;dropTarget=0;fillColor=none;points=[[0,0.5],[1,0.5]];portConstraint=eastwest;fontFamily=Helvetica;fontSize=24;fontColor=default;html=1;" parent="15" vertex="1">
                    <mxGeometry y="57" width="830" height="56" as="geometry"/>
                </mxCell>
                <mxCell id="21" value="" style="shape=partialRectangle;html=1;whiteSpace=wrap;connectable=0;fillColor=none;top=0;left=0;bottom=0;right=0;overflow=hidden;fontFamily=Helvetica;fontSize=24;fontColor=default;" parent="20" vertex="1">
                    <mxGeometry width="274" height="56" as="geometry">
                        <mxRectangle width="274" height="56" as="alternateBounds"/>
                    </mxGeometry>
                </mxCell>
                <mxCell id="22" value="" style="shape=partialRectangle;html=1;whiteSpace=wrap;connectable=0;fillColor=none;top=0;left=0;bottom=0;right=0;overflow=hidden;fontFamily=Helvetica;fontSize=24;fontColor=default;" parent="20" vertex="1">
                    <mxGeometry x="274" width="272" height="56" as="geometry">
                        <mxRectangle width="272" height="56" as="alternateBounds"/>
                    </mxGeometry>
                </mxCell>
                <mxCell id="23" value="" style="shape=partialRectangle;html=1;whiteSpace=wrap;connectable=0;top=0;left=0;bottom=0;right=0;overflow=hidden;fontFamily=Helvetica;fontSize=24;fillColor=#fad9d5;strokeColor=#ae4132;" parent="20" vertex="1">
                    <mxGeometry x="546" width="284" height="56" as="geometry">
                        <mxRectangle width="284" height="56" as="alternateBounds"/>
                    </mxGeometry>
                </mxCell>
                <mxCell id="24" value="" style="shape=tableRow;horizontal=0;startSize=0;swimlaneHead=0;swimlaneBody=0;top=0;left=0;bottom=0;right=0;collapsible=0;dropTarget=0;fillColor=none;points=[[0,0.5],[1,0.5]];portConstraint=eastwest;fontFamily=Helvetica;fontSize=24;fontColor=default;html=1;" parent="15" vertex="1">
                    <mxGeometry y="113" width="830" height="57" as="geometry"/>
                </mxCell>
                <mxCell id="25" value="" style="shape=partialRectangle;html=1;whiteSpace=wrap;connectable=0;fillColor=none;top=0;left=0;bottom=0;right=0;overflow=hidden;fontFamily=Helvetica;fontSize=24;fontColor=default;" parent="24" vertex="1">
                    <mxGeometry width="274" height="57" as="geometry">
                        <mxRectangle width="274" height="57" as="alternateBounds"/>
                    </mxGeometry>
                </mxCell>
                <mxCell id="26" value="" style="shape=partialRectangle;html=1;whiteSpace=wrap;connectable=0;fillColor=none;top=0;left=0;bottom=0;right=0;overflow=hidden;fontFamily=Helvetica;fontSize=24;fontColor=default;" parent="24" vertex="1">
                    <mxGeometry x="274" width="272" height="57" as="geometry">
                        <mxRectangle width="272" height="57" as="alternateBounds"/>
                    </mxGeometry>
                </mxCell>
                <mxCell id="27" value="" style="shape=partialRectangle;html=1;whiteSpace=wrap;connectable=0;fillColor=none;top=0;left=0;bottom=0;right=0;overflow=hidden;pointerEvents=1;fontFamily=Helvetica;fontSize=24;fontColor=default;" parent="24" vertex="1">
                    <mxGeometry x="546" width="284" height="57" as="geometry">
                        <mxRectangle width="284" height="57" as="alternateBounds"/>
                    </mxGeometry>
                </mxCell>
                <mxCell id="28" value="Cart secttion:" style="text;strokeColor=none;fillColor=none;align=left;verticalAlign=top;spacingLeft=4;spacingRight=4;overflow=hidden;rotatable=0;points=[[0,0.5],[1,0.5]];portConstraint=eastwest;whiteSpace=wrap;html=1;fontFamily=Helvetica;fontSize=24;fontColor=default;" parent="1" vertex="1">
                    <mxGeometry x="15" y="650" width="200" height="50" as="geometry"/>
                </mxCell>
                <mxCell id="30" value="" style="whiteSpace=wrap;html=1;aspect=fixed;fontFamily=Helvetica;fontSize=24;fontColor=#ffffff;fillColor=#6a00ff;strokeColor=#3700CC;" parent="1" vertex="1">
                    <mxGeometry x="90" y="1110" width="130" height="130" as="geometry"/>
                </mxCell>
                <mxCell id="31" value="" style="whiteSpace=wrap;html=1;aspect=fixed;fontFamily=Helvetica;fontSize=24;fontColor=#ffffff;fillColor=#6a00ff;strokeColor=#3700CC;" parent="1" vertex="1">
                    <mxGeometry x="520" y="1360" width="130" height="130" as="geometry"/>
                </mxCell>
                <mxCell id="32" value="" style="whiteSpace=wrap;html=1;aspect=fixed;fontFamily=Helvetica;fontSize=24;fontColor=#ffffff;fillColor=#6a00ff;strokeColor=#3700CC;" parent="1" vertex="1">
                    <mxGeometry x="90" y="1360" width="130" height="130" as="geometry"/>
                </mxCell>
                <mxCell id="33" value="" style="whiteSpace=wrap;html=1;aspect=fixed;fontFamily=Helvetica;fontSize=24;fontColor=#ffffff;fillColor=#6a00ff;strokeColor=#3700CC;" parent="1" vertex="1">
                    <mxGeometry x="310" y="1110" width="130" height="130" as="geometry"/>
                </mxCell>
                <mxCell id="34" value="" style="whiteSpace=wrap;html=1;aspect=fixed;fontFamily=Helvetica;fontSize=24;fontColor=#ffffff;fillColor=#6a00ff;strokeColor=#3700CC;" parent="1" vertex="1">
                    <mxGeometry x="520" y="1110" width="130" height="130" as="geometry"/>
                </mxCell>
                <mxCell id="35" value="" style="whiteSpace=wrap;html=1;aspect=fixed;fontFamily=Helvetica;fontSize=24;fontColor=#ffffff;fillColor=#6a00ff;strokeColor=#3700CC;" parent="1" vertex="1">
                    <mxGeometry x="310" y="1360" width="130" height="130" as="geometry"/>
                </mxCell>
                <mxCell id="36" value="sales section:" style="text;strokeColor=none;fillColor=none;align=left;verticalAlign=top;spacingLeft=4;spacingRight=4;overflow=hidden;rotatable=0;points=[[0,0.5],[1,0.5]];portConstraint=eastwest;whiteSpace=wrap;html=1;fontFamily=Helvetica;fontSize=24;fontColor=default;" parent="1" vertex="1">
                    <mxGeometry x="45" y="1050" width="170" height="50" as="geometry"/>
                </mxCell>
                <mxCell id="42" value="" style="endArrow=none;html=1;fontFamily=Helvetica;fontSize=24;fontColor=default;strokeWidth=10;" parent="1" edge="1">
                    <mxGeometry width="50" height="50" relative="1" as="geometry">
                        <mxPoint y="1010" as="sourcePoint"/>
                        <mxPoint x="840" y="1010" as="targetPoint"/>
                    </mxGeometry>
                </mxCell>
                <mxCell id="43" value="" style="endArrow=none;html=1;fontFamily=Helvetica;fontSize=24;fontColor=default;strokeWidth=10;" parent="1" edge="1">
                    <mxGeometry width="50" height="50" relative="1" as="geometry">
                        <mxPoint x="-2.2737367544323206e-13" y="590" as="sourcePoint"/>
                        <mxPoint x="840" y="590" as="targetPoint"/>
                    </mxGeometry>
                </mxCell>
                <mxCell id="44" value="" style="sketch=0;outlineConnect=0;fontColor=#232F3E;gradientColor=none;fillColor=#232F3D;strokeColor=none;dashed=0;verticalLabelPosition=bottom;verticalAlign=top;align=center;html=1;fontSize=12;fontStyle=0;aspect=fixed;pointerEvents=1;shape=mxgraph.aws4.gear;fontFamily=Helvetica;" parent="1" vertex="1">
                    <mxGeometry x="370" y="200.5" width="39" height="39" as="geometry"/>
                </mxCell>
                <mxCell id="45" value="" style="endArrow=none;html=1;fontFamily=Helvetica;fontSize=24;fontColor=default;strokeWidth=10;" parent="1" edge="1">
                    <mxGeometry width="50" height="50" relative="1" as="geometry">
                        <mxPoint x="4" y="1560" as="sourcePoint"/>
                        <mxPoint x="844" y="1560" as="targetPoint"/>
                    </mxGeometry>
                </mxCell>
                <mxCell id="49" value="" style="rounded=0;whiteSpace=wrap;html=1;fontFamily=Helvetica;fontSize=24;fillColor=#fad7ac;strokeColor=#b46504;" parent="1" vertex="1">
                    <mxGeometry x="40" y="1740" width="750" height="330" as="geometry"/>
                </mxCell>
                <mxCell id="50" value="About us section:" style="text;strokeColor=none;fillColor=none;align=left;verticalAlign=top;spacingLeft=4;spacingRight=4;overflow=hidden;rotatable=0;points=[[0,0.5],[1,0.5]];portConstraint=eastwest;whiteSpace=wrap;html=1;fontFamily=Helvetica;fontSize=24;fontColor=default;" parent="1" vertex="1">
                    <mxGeometry x="40" y="1690" width="200" height="50" as="geometry"/>
                </mxCell>
                <mxCell id="51" value="other Information" style="rounded=0;whiteSpace=wrap;html=1;fontFamily=Helvetica;fontSize=24;fontColor=default;fillColor=none;gradientColor=none;" vertex="1" parent="1">
                    <mxGeometry x="-400" y="320" width="200" height="80" as="geometry"/>
                </mxCell>
            </root>
        </mxGraphModel>
    </diagram>
</mxfile>